# xmcd
#
# Track frame offsets: 
#        150
#        13244
#        27423
#        39290
#        50654
#        64473
#        78041
#        89712
#        102774
#        115811
#        127678
#        139338
#        150816
#        162599
#        174270
#        186666
#        200508
#        211986
#        220427
#        231793
#        243243
#        258202
#        269258
#        281623
#        294013
#        308243
#        320249
#
# Disc length: 4423 seconds
#
# Revision: 0
# Processed by: cddbd v1.5.1PL2 Copyright (c) Steve Scherf et al.
# Submitted via: ExactAudioCopy v0.95b3
#
DISCID=8711451b
DTITLE=Va  - Atlantic R&B series - Disc 5
DYEAR=1900
DGENRE=
TTITLE0=Cd5 - 01. Coasters - Little Egypt
TTITLE1=Cd5 - 02. Ben E. King - Amor
TTITLE2=Cd5 - 03. Mar-Keys - Last Night
TTITLE3=Cd5 - 04. The Ikettes - I'm Blue (The Gong Gong Song)
TTITLE4=Cd5 - 05. William Bell - You Don't Miss Your Water
TTITLE5=Cd5 - 06. I Found A Love - The Falcons
TTITLE6=Cd5 - 07. Solomon Burke - Cry To Me
TTITLE7=Cd5 - 08. Ben E. King - Don't Play That Song (You Lied)
TTITLE8=Cd5 - 09. Booker T. and The MG's - Green Onions
TTITLE9=Cd5 - 10. Up On The Roof - Drifters
TTITLE10=Cd5 - 11. See See Rider - LaVern Baker
TTITLE11=Cd5 - 12. I (Who Have Nothing) - Ben E. King
TTITLE12=Cd5 - 13. Solomon Burke - If You Need Me
TTITLE13=Cd5 - 14. These Arms Of Mine - Otis Redding
TTITLE14=Cd5 - 15. Hello Stranger - Barbara Lewis
TTITLE15=Cd5 - 16. On Broadway - Drifters
TTITLE16=Cd5 - 17. Just One Look - Doris Troy
TTITLE17=Cd5 - 18. Swans - (Do The) Mashed Potatoes
TTITLE18=Cd5 - 19. Land Of 1000 Dances - Chris Kenner
TTITLE19=Cd5 - 20. Walkin' The Dog - Rufus Thomas
TTITLE20=Cd5 - 21. Release Me - Ester Phillips
TTITLE21=Cd5 - 22. Mercy Mercy - Don Covay
TTITLE22=Cd5 - 23. Under The Boardwalk - Drifters
TTITLE23=Cd5 - 24. And I Love Him - Ester Phillips
TTITLE24=Cd5 - 25. Hold What You've Got - Joe Tex
TTITLE25=Cd5 - 26. Mr. Pitiful - Otis Redding
TTITLE26=Cd5 - 27.Baby I'm Yours - Barbara Lewis
EXTD=
EXTT0=
EXTT1=
EXTT2=
EXTT3=
EXTT4=
EXTT5=
EXTT6=
EXTT7=
EXTT8=
EXTT9=
EXTT10=
EXTT11=
EXTT12=
EXTT13=
EXTT14=
EXTT15=
EXTT16=
EXTT17=
EXTT18=
EXTT19=
EXTT20=
EXTT21=
EXTT22=
EXTT23=
EXTT24=
EXTT25=
EXTT26=
PLAYORDER=
